<svg xmlns="http://www.w3.org/2000/svg" viewBox="-8 -10 50 50" width="500" height="500" shape-rendering="crispEdges">
  <defs>
    <style>
      :root {
        --cat-color: #1A1A1A;
        --cat-outline: #FFFFFF;
        --cat-outline-width: 1;
        --purr-face-x: 0px;
        --purr-face-y: 0px;
      }

      .breathe-anim { transform-origin: 16px 22px; animation: none; }
      /* Tail rotation pivot at the body-inner point (24, 31) — the base barely moves, so it is not split out */
      .tail-sway { transform-origin: 24px 31px; animation: none; }
      .whiskers-flex { transform-origin: 16px 16px; animation: none; }
      .ear-twitch-l { transform-origin: 8px 8px; animation: none; }
      .ear-twitch-r { transform-origin: 19px 9px; animation: none; }

      .eye-l-blink {
        transform-origin: 9px 12.5px;
        animation: none;
      }
      .eye-r-blink {
        transform-origin: 18px 12.5px;
        animation: none;
      }
      :root.idle-animated .breathe-anim { animation: breathe 3.5s infinite ease-in-out; }
      :root.idle-animated .tail-sway { animation: tail-sway 4s infinite ease-in-out; }
      :root.idle-animated .whiskers-flex { animation: whiskers 8s infinite ease-in-out; }
      :root.idle-animated .ear-twitch-l { animation: ear-twitch-l 11s infinite; }
      :root.idle-animated .ear-twitch-r { animation: ear-twitch-r 13s infinite; }
      :root.idle-animated .eye-l-blink,
      :root.idle-animated .eye-r-blink {
        animation: blink 4s infinite;
      }
      .pupil-left {
        transform-box: fill-box;
        transform-origin: center;
        transition: transform 0.24s ease-out;
      }
      .pupil-right {
        transform-box: fill-box;
        transform-origin: center;
        transition: transform 0.24s ease-out;
      }

      :root.purring .eye-l-blink,
      :root.purring .eye-r-blink {
        animation:
          purr-eye-close 0.22s ease-out forwards,
          purr-eye-hide 0.01s linear 0.22s forwards;
      }
      .closed-eye-line {
        opacity: 0;
      }
      :root.purring .closed-eye-line {
        animation: purr-closed-eye-show 0.01s linear 0.22s forwards;
      }
      :root.purring #whiskers {
        animation: purr-whiskers 0.7s steps(2, end) infinite;
      }
      :root.purring #face-js {
        animation: purr-face 1.8s steps(2, end) infinite;
      }
      :root.purring .tail-sway {
        animation: purr-tail-flutter 0.4s steps(2, end) infinite;
      }

      :root.hunting .breathe-anim {
        animation: none;
      }
      :root.hunting #face-js {
        transform-origin: 16px 16px;
        animation: hunting-face-crouch 0.42s ease-out forwards;
      }
      :root.hunting .hunting-body-grow {
        transform-origin: 16px 28px;
        animation: hunting-body-grow 0.42s ease-out forwards;
      }
      :root.hunting #body {
        transform-origin: 16px 28px;
        animation: hunting-body-wiggle 0.68s ease-in-out infinite;
      }
      :root.hunting .hunting-tail-rise {
        animation: hunting-tail-rise 0.42s ease-out forwards;
      }
      :root.hunting .tail-sway {
        transform-origin: 24px 31px;
        animation: hunting-tail-wiggle 0.68s ease-in-out 0.12s infinite;
      }
      :root.hunting .pupil-left,
      :root.hunting .pupil-right {
        transform: scale(1.33);
      }
      :root.hunting-return .breathe-anim {
        animation: none;
      }
      :root.hunting-return #face-js {
        transform-origin: 16px 16px;
        animation: hunting-face-return 0.42s ease-out forwards;
      }
      :root.hunting-return .hunting-body-grow {
        transform-origin: 16px 28px;
        animation: hunting-body-return 0.42s ease-out forwards;
      }
      :root.hunting-return #body {
        animation: none;
      }
      :root.hunting-return .hunting-tail-rise {
        animation: hunting-tail-return 0.42s ease-out forwards;
      }
      :root.hunting-return .tail-sway {
        animation: none;
      }

      #body-js, #face-js, #eyes-js {
        transition: transform 0.18s ease-out;
      }

      @keyframes breathe {
        0%, 100% { transform: scale(1, 1); }
        50% { transform: scale(1.015, 0.985) translate(0, 0.4px); }
      }
      /* Gentle idle wag, enough to read at tray-size without feeling frantic. */
      @keyframes tail-sway {
        0%, 100% { transform: rotate(0deg); }
        35% { transform: rotate(7deg); }
        75% { transform: rotate(-5deg); }
      }
      @keyframes whiskers {
        0%, 90%, 100% { transform: scaleX(1); }
        92%, 96% { transform: scaleX(1.06); }
        94% { transform: scaleX(1); }
      }
      @keyframes ear-twitch-l {
        0%, 72%, 100% { transform: rotate(0deg); }
        76% { transform: rotate(-7deg) translate(-0.4px, 0); }
        80% { transform: rotate(4deg) translate(0.3px, 0); }
        84% { transform: rotate(0deg); }
      }
      @keyframes ear-twitch-r {
        0%, 64%, 100% { transform: rotate(0deg); }
        68% { transform: rotate(7deg) translate(0.4px, 0); }
        72% { transform: rotate(-4deg) translate(-0.3px, 0); }
        76% { transform: rotate(0deg); }
      }
      /* Quick blink: 4s cycle, brief at 96-99% (0.12s total) */
      @keyframes blink {
        0%, 96%, 100% { transform: scaleY(1); }
        97.5% { transform: scaleY(0.1); }
      }
      @keyframes purr-eye-close {
        0% { transform: scaleY(1); }
        100% { transform: scaleY(0.24); }
      }
      @keyframes purr-eye-hide {
        to { opacity: 0; }
      }
      @keyframes purr-closed-eye-show {
        to { opacity: 1; }
      }
      @keyframes purr-whiskers {
        0%, 100% { transform: translateY(0); }
        50% { transform: translateY(0.6px); }
      }
      @keyframes purr-face {
        0%, 100% { transform: translate(var(--purr-face-x), var(--purr-face-y)); }
        50% { transform: translate(var(--purr-face-x), calc(var(--purr-face-y) + 0.2px)); }
      }
      @keyframes purr-tail-flutter {
        0%, 100% { transform: rotate(-5deg); }
        50% { transform: rotate(12deg); }
      }
      @keyframes hunting-face-crouch {
        0% { transform: translateY(0) scale(1); }
        100% { transform: translateY(11px) scale(1); }
      }
      @keyframes hunting-body-grow {
        0% { transform: scale(1); }
        100% { transform: scale(1.2); }
      }
      @keyframes hunting-body-wiggle {
        0%, 100% { transform: translateX(0); }
        25% { transform: translateX(-1px); }
        75% { transform: translateX(1px); }
      }
      @keyframes hunting-tail-wiggle {
        0%, 100% { transform: translateX(0); }
        25% { transform: translateX(-1px); }
        75% { transform: translateX(1px); }
      }
      @keyframes hunting-tail-rise {
        0% { transform: translateY(0); }
        100% { transform: translateY(-5px); }
      }
      @keyframes hunting-face-return {
        0% { transform: translateY(11px) scale(1); }
        100% { transform: translateY(0) scale(1); }
      }
      @keyframes hunting-body-return {
        0% { transform: scale(1.2); }
        100% { transform: scale(1); }
      }
      @keyframes hunting-tail-return {
        0% { transform: translateY(-5px); }
        100% { transform: translateY(0); }
      }
    </style>

    <filter id="cat-outline" x="-20%" y="-20%" width="140%" height="140%">
      <feMorphology operator="dilate" radius="1" in="SourceAlpha" result="dilated"/>
      <feFlood flood-color="var(--cat-outline)" result="flood"/>
      <feComposite in="flood" in2="dilated" operator="in" result="outline"/>
      <feMerge>
        <feMergeNode in="outline"/>
        <feMergeNode in="SourceGraphic"/>
      </feMerge>
    </filter>

    <!-- 1px dark-gray outline on the eye whites — fixed dark gray -->
    <filter id="eye-outline" x="-50%" y="-50%" width="200%" height="200%">
      <feMorphology operator="dilate" radius="1" in="SourceAlpha" result="dilated"/>
      <feFlood flood-color="#F5F5F5" result="flood"/>
      <feComposite in="flood" in2="dilated" operator="in" result="outline"/>
      <feMerge>
        <feMergeNode in="outline"/>
        <feMergeNode in="SourceGraphic"/>
      </feMerge>
    </filter>

    <clipPath id="head-clip">
      <path transform="translate(3 4)" d="M4 2.5H2.5V4H1.5V5.5H0.5V7H0V12H0.5V15H1.5V16.5H3V18H5.5V19H16.5V18H18.5V16.5H20V15H21V12H22V8H21.5V5H20.5V4H19V3H17.5V2H15V1H7V2H4V2.5Z"/>
    </clipPath>
    <clipPath id="body-clip">
      <path transform="translate(3 19)" d="M14.5 0H16.5V0.5H18.5V1.5H20V2.5H21V5.5H22V11H21V14H19.5V15H2.5V14H1V11H0V6H0.5V3H1.5V2H3.5V1H6.5V0H14.5Z"/>
    </clipPath>
    <clipPath id="leg-fl-clip">
      <path d="M6 29V26H7V25H10V26H11V28H12V31H13V32H14V35H13V36H9V35H8V31H7V29H6Z"/>
    </clipPath>
    <clipPath id="leg-fr-clip">
      <path d="M23 29V26H22V25H19V26H18V28H17V31H16V32H15V35H16V36H20V35H21V31H22V29H23Z"/>
    </clipPath>
    <!-- tail-clip is generated dynamically by installTailComponent in renderer.js -->
  </defs>

  <g id="body-js" filter="url(#cat-outline)">
    <g class="breathe-anim">
      <!-- Tail — installTailComponent injects the path/patches/clipPath dynamically.
           Rotation pivot comes from the parent .tail-sway at (24,31). -->
      <g class="hunting-tail-rise">
        <g class="tail-sway">
          <g id="tail" fill="var(--cat-color)" data-patch-frame="20 24 1 1"></g>
        </g>
      </g>

      <!-- Body — backmost layer (drawn first so every other part stacks on top) -->
      <g class="hunting-body-grow">
        <g id="body" fill="var(--cat-color)" data-patch-frame="3 19 1 1">
          <rect x="2" y="25.5" width="1" height="5.5"/>
          <rect x="3" y="24.5" width="1" height="8"/>
          <rect x="25" y="24.5" width="1" height="8"/>
          <rect x="26" y="25.5" width="1" height="5.5"/>
          <rect x="4" y="33" width="3" height="0.5"/>
          <rect x="22" y="33" width="3" height="0.5"/>
          <path transform="translate(3 19)" d="M14.5 0H16.5V0.5H18.5V1.5H20V2.5H21V5.5H22V11H21V14H19.5V15H2.5V14H1V11H0V6H0.5V3H1.5V2H3.5V1H6.5V0H14.5Z"/>
          <g class="patches" clip-path="url(#body-clip)"></g>
        </g>
      </g>

      <!-- Front legs (cf. default.svg) — left/right painted separately (legFl/legFr keys are split) -->
      <g id="legs" fill="var(--cat-color)">
        <g id="leg-fl" data-patch-frame="6 25 1 1">
          <path d="M6 29V26H7V25H10V26H11V28H12V31H13V32H14V35H13V36H9V35H8V31H7V29H6Z"/>
          <g class="patches" clip-path="url(#leg-fl-clip)"></g>
        </g>
        <g id="leg-fr" data-patch-frame="15 25 1 1">
          <path d="M23 29V26H22V25H19V26H18V28H17V31H16V32H15V35H16V36H20V35H21V31H22V29H23Z"/>
          <g class="patches" clip-path="url(#leg-fr-clip)"></g>
        </g>
      </g>

      <!-- ===== FACE GROUP ===== -->
      <g id="face-js">

        <g class="whiskers-flex">
          <g id="whiskers" fill="var(--cat-color)" data-heat-overlay="true">
            <rect x="1" y="13" width="5" height="1"/>
            <rect x="22" y="13" width="5" height="1"/>
            <rect x="0" y="15" width="6" height="1"/>
            <rect x="23" y="15" width="6" height="1"/>
            <rect x="1" y="18" width="5" height="1"/>
            <rect x="22" y="18" width="5" height="1"/>
          </g>
        </g>

        <!-- Ears — installEarComponents injects the standard ear path dynamically.
             The parent .ear-twitch-l/.ear-twitch-r keep the twitch animation. -->
        <g class="ear-twitch-l">
          <g id="ear-left" data-ear-position="5 2">
            <path transform="translate(5 2)" d="M0 7V4H1V2H2V1H3V0H4V2H5V3H6V7H5V8H1V7H0Z" fill="var(--cat-color)"/>
          </g>
        </g>
        <g class="ear-twitch-r">
          <g id="ear-right" data-ear-position="17 2">
            <path transform="translate(17 2)" d="M1 3H0V7H1V8H4V7H5V2H4V1H3V0H2V1H1V3Z" fill="var(--cat-color)"/>
          </g>
        </g>

        <g id="head" fill="var(--cat-color)" data-patch-frame="3 5 1 1">
          <path transform="translate(3 4)" d="M4 2.5H2.5V4H1.5V5.5H0.5V7H0V12H0.5V15H1.5V16.5H3V18H5.5V19H16.5V18H18.5V16.5H20V15H21V12H22V8H21.5V5H20.5V4H19V3H17.5V2H15V1H7V2H4V2.5Z"/>
          <g class="patches" clip-path="url(#head-clip)"></g>
        </g>

        <g id="eyes-js">
          <g class="eye-l-blink">
            <g id="eye-left">
              <g fill="var(--eye-bg-color, #FFFFFF)">
                <rect x="7.5" y="11" width="0.5" height="3"/>
                <rect x="11" y="11" width="0.5" height="3"/>
                <rect x="8" y="10.5" width="3" height="4"/>
              </g>
              <rect id="pupil-left" class="pupil-left" x="8.5" y="11.5" width="2" height="2.5" fill="var(--eye-color-left, var(--eye-color, var(--cat-color)))"/>
            </g>
          </g>
          <g class="eye-r-blink">
            <g id="eye-right">
              <g fill="var(--eye-bg-color, #FFFFFF)">
                <rect x="16.5" y="11" width="0.5" height="3"/>
                <rect x="20" y="11" width="0.5" height="3"/>
                <rect x="17" y="10.5" width="3" height="4"/>
              </g>
              <rect id="pupil-right" class="pupil-right" x="17.5" y="11.5" width="2" height="2.5" fill="var(--eye-color-right, var(--eye-color, var(--cat-color)))"/>
            </g>
          </g>
          <rect class="closed-eye-line" x="7" y="12" width="5" height="1" fill="var(--cat-outline)"/>
          <rect class="closed-eye-line" x="16" y="12" width="5" height="1" fill="var(--cat-outline)"/>
        </g>

        <g id="mouth-nose" data-heat-overlay="true">
          <rect x="13" y="14" width="3" height="1" fill="#df6177"/>
          <rect x="14" y="15" width="1" height="2" fill="var(--cat-outline)"/>
          <rect x="13" y="17" width="1" height="1" fill="var(--cat-outline)"/>
          <rect x="15" y="17" width="1" height="1" fill="var(--cat-outline)"/>
        </g>

      </g>

    </g>
  </g>
</svg>
